<svg xmlns="http://www.w3.org/2000/svg" width="256" height="256" viewBox="0 0 100 100"><rect width="100" height="100" rx="20" fill="#6b7cff"></rect><path d="M26.70 75.12L24.98 80.10Q13.90 76.99 13.90 65.80L13.90 65.80L13.90 59.67Q13.90 53.18 8.43 53.18L8.43 53.18L8.43 46.82Q13.78 46.82 13.90 40.69L13.90 40.69L13.90 34.17Q13.90 28.48 16.67 24.98Q19.44 21.47 24.98 19.90L24.98 19.90L26.70 24.85Q24.36 25.71 23.16 27.85Q21.96 29.99 21.90 33.77L21.90 33.77L21.90 40.23Q21.90 47.19 16.39 49.98L16.39 49.98Q21.90 52.81 21.90 59.80L21.90 59.80L21.90 66.32Q22.05 73.52 26.70 75.12L26.70 75.12ZM68.20 24.24L68.20 69.03L58.97 69.03L58.97 49.83L40.97 49.83L40.97 69.03L31.74 69.03L31.74 24.24L40.97 24.24L40.97 42.39L58.97 42.39L58.97 24.24L68.20 24.24ZM75.02 80.10L73.30 75.12Q77.98 73.46 78.10 66.20L78.10 66.20L78.10 59.67Q78.10 52.72 83.73 50.02L83.73 50.02Q78.10 47.31 78.10 40.20L78.10 40.20L78.10 33.77Q77.98 26.61 73.30 24.85L73.30 24.85L75.02 19.90Q80.53 21.44 83.30 24.93Q86.07 28.42 86.10 34.08L86.10 34.08L86.10 40.69Q86.22 46.82 91.57 46.82L91.57 46.82L91.57 53.18Q86.10 53.18 86.10 59.61L86.10 59.61L86.10 66.29Q85.85 77.05 75.02 80.10L75.02 80.10Z" fill="#edf0ff"></path></svg>