<svg aria-hidden="true" style="position: absolute; width: 0; height: 0; overflow: hidden;" version="1.1" xmlns="http://www.w3.org/2000/svg" xmlns:xlink="http://www.w3.org/1999/xlink">
<defs>
<!-- Instagram -->
<symbol id="icon-Instagram" viewBox="0 0 32 32">
<path d="M16 2.879c4.276 0 4.782 0.019 6.464 0.094 1.563 0.069 2.407 0.331 2.969 0.55 0.744 0.288 1.282 0.638 1.838 1.194 0.563 0.563 0.906 1.094 1.194 1.838 0.219 0.563 0.481 1.413 0.55 2.969 0.075 1.688 0.094 2.194 0.094 6.464 0 4.276-0.019 4.782-0.094 6.464-0.069 1.563-0.331 2.407-0.55 2.969-0.288 0.744-0.638 1.282-1.194 1.838-0.563 0.563-1.094 0.906-1.838 1.194-0.563 0.219-1.413 0.481-2.969 0.55-1.688 0.075-2.194 0.094-6.464 0.094-4.276 0-4.782-0.019-6.464-0.094-1.563-0.069-2.407-0.331-2.969-0.55-0.744-0.288-1.282-0.638-1.838-1.194-0.563-0.563-0.906-1.094-1.194-1.838-0.219-0.563-0.481-1.413-0.55-2.969-0.075-1.688-0.094-2.194-0.094-6.464 0-4.276 0.019-4.782 0.094-6.464 0.069-1.563 0.331-2.407 0.55-2.969 0.288-0.744 0.638-1.282 1.194-1.838 0.563-0.563 1.094-0.906 1.838-1.194 0.563-0.219 1.413-0.481 2.969-0.55 1.682-0.075 2.188-0.094 6.464-0.094zM16-0.003c-4.345 0-4.888 0.019-6.595 0.094-1.7 0.075-2.869 0.35-3.882 0.744-1.056 0.413-1.95 0.956-2.838 1.85-0.894 0.888-1.438 1.782-1.85 2.832-0.394 1.019-0.669 2.182-0.744 3.882-0.075 1.713-0.094 2.257-0.094 6.601s0.019 4.889 0.094 6.595c0.075 1.7 0.35 2.869 0.744 3.882 0.413 1.056 0.956 1.95 1.85 2.838 0.888 0.888 1.782 1.438 2.832 1.844 1.019 0.394 2.182 0.669 3.882 0.744 1.707 0.075 2.25 0.094 6.595 0.094s4.888-0.019 6.595-0.094c1.7-0.075 2.869-0.35 3.882-0.744 1.050-0.406 1.944-0.956 2.832-1.844s1.438-1.782 1.844-2.832c0.394-1.019 0.669-2.182 0.744-3.882 0.075-1.707 0.094-2.25 0.094-6.595s-0.019-4.888-0.094-6.595c-0.075-1.7-0.35-2.869-0.744-3.882-0.394-1.063-0.938-1.957-1.832-2.844-0.888-0.888-1.782-1.438-2.832-1.844-1.019-0.394-2.182-0.669-3.882-0.744-1.713-0.081-2.257-0.1-6.601-0.1z"></path>
<path d="M16 7.78c-4.538 0-8.22 3.682-8.22 8.22s3.682 8.22 8.22 8.22c4.538 0 8.22-3.682 8.22-8.22s-3.682-8.22-8.22-8.22zM16 21.332c-2.944 0-5.332-2.388-5.332-5.332s2.388-5.332 5.332-5.332c2.944 0 5.332 2.388 5.332 5.332s-2.388 5.332-5.332 5.332z"></path>
<path d="M26.465 7.455c0 1.063-0.863 1.919-1.919 1.919-1.063 0-1.919-0.863-1.919-1.919 0-1.063 0.863-1.919 1.919-1.919s1.919 0.863 1.919 1.919z"></path>
</symbol>
<!-- LinkedIn -->
<symbol id="icon-LinkedIn" viewBox="0 0 32 32">
<path d="M29.631 0h-27.269c-1.306 0-2.362 1.031-2.362 2.306v27.381c0 1.275 1.056 2.312 2.362 2.312h27.269c1.306 0 2.369-1.037 2.369-2.306v-27.387c0-1.275-1.063-2.306-2.369-2.306zM9.494 27.269h-4.75v-15.275h4.75v15.275zM7.119 9.913c-1.525 0-2.756-1.231-2.756-2.75s1.231-2.75 2.756-2.75c1.519 0 2.75 1.231 2.75 2.75 0 1.512-1.231 2.75-2.75 2.75zM27.269 27.269h-4.744v-7.425c0-1.769-0.031-4.050-2.469-4.050-2.469 0-2.844 1.931-2.844 3.925v7.55h-4.737v-15.275h4.55v2.088h0.063c0.631-1.2 2.181-2.469 4.488-2.469 4.806 0 5.694 3.162 5.694 7.275v8.381z"></path>
</symbol>
<!-- Twitter -->
<symbol id="icon-Twitter" viewBox="0 0 32 32">
<path d="M10.067 29c12.072 0 18.677-10.004 18.677-18.677 0-0.281-0.006-0.569-0.019-0.85 1.285-0.929 2.394-2.080 3.274-3.399-1.197 0.532-2.467 0.88-3.768 1.031 1.37-0.821 2.396-2.111 2.887-3.631-1.289 0.764-2.698 1.302-4.168 1.593-0.99-1.052-2.299-1.749-3.725-1.982s-2.889 0.009-4.163 0.691c-1.274 0.681-2.288 1.764-2.885 3.079s-0.745 2.791-0.419 4.199c-2.609-0.131-5.162-0.809-7.493-1.99s-4.387-2.838-6.036-4.865c-0.838 1.445-1.095 3.155-0.717 4.782s1.36 3.050 2.748 3.979c-1.042-0.033-2.062-0.314-2.974-0.819v0.081c-0.001 1.516 0.523 2.986 1.484 4.16s2.297 1.978 3.784 2.278c-0.966 0.264-1.979 0.303-2.962 0.112 0.42 1.304 1.236 2.445 2.335 3.263s2.426 1.272 3.795 1.3c-2.325 1.826-5.198 2.817-8.154 2.812-0.524-0.001-1.048-0.033-1.569-0.096 3.004 1.927 6.498 2.951 10.067 2.949z"></path>
</symbol>
<!-- Facebook -->
<symbol id="icon-Facebook" viewBox="0 0 32 32">
<path d="M32 16c0-8.837-7.163-16-16-16s-16 7.163-16 16c0 7.986 5.851 14.605 13.5 15.806v-11.181h-4.063v-4.625h4.063v-3.525c0-4.010 2.389-6.225 6.043-6.225 1.75 0 3.582 0.313 3.582 0.313v3.938h-2.017c-1.988 0-2.608 1.233-2.608 2.5v3h4.437l-0.709 4.625h-3.728v11.181c7.649-1.2 13.5-7.82 13.5-15.806z"></path>
</symbol>
<!-- Logo -->
<symbol id="icon-Logo" viewBox="0 0 4448 1024">
<path d="M65.866 169.888v205.188c0 33.657 0 71.467-69.827 71.467v110.23c69.827 0 69.827 37.783 69.827 71.461v205.171c0 159.237 87.246 170.794 235.6 170.794v-123.847c-69.827 0-95.988-10.28-95.988-50.009v-203.151c0-46.916 3.221-95.915-37.728-125.557 40.95-29.598 37.728-78.605 37.728-125.557v-203.114c0-39.687 26.183-50.009 95.988-50.009v-123.868c-148.353-0.022-235.6 11.54-235.6 170.8zM458.45 163.242c-38.149 32.228-57.208 78.519-57.208 138.829v54.176h-79.684v113.206h79.684v410.24h173.157v-410.24h107.272v-113.206h-107.272v-38.639c0-19.662 5.786-34.814 17.357-45.456s28.112-15.944 49.56-15.944c10.536 0 64.37 0.171 64.37 0.171v-131.369c0 0-96.12-1.046-109.857-1.046-41.803 0-99.232 7.009-137.377 39.281zM781.845 255.908h173.177v-130.899h-173.177v130.899zM781.845 879.713h173.177v-523.469h-173.177v523.469zM1382.052 346.564c-32.693 0-62.339 7.354-88.891 22.011-26.555 14.664-48.857 35.096-66.913 61.187l-6.638-73.517h-161.939v523.445h172.15v-376.349c8.851-9.678 19.497-17.305 31.923-22.735 12.421-5.431 26.639-8.229 42.658-8.229 25.546 0 44.874 6.216 57.975 18.616 13.105 12.438 19.677 33.596 19.677 63.623v325.12h172.65v-324.628c0-72.578-15.248-125.475-45.703-158.702-30.48-33.237-72.807-49.843-126.946-49.843zM2076.865 621.613c-32.515-24.982-82.514-43.81-149.933-56.376-42.898-7.694-71.45-16.458-85.557-26.136-14.134-9.64-21.208-21.459-21.208-35.308 0-14.535 6.132-26.393 18.381-35.776 12.249-9.361 27.412-14.060 45.462-14.060 24.518 0 42.312 5.34 53.374 15.984s16.609 26.287 16.609 46.909h167.546l1.029-2.882c2.058-49.412-18.711-89.57-62.313-120.708s-102.191-46.716-175.742-46.716c-69.826 0-125.15 16.071-166.033 48.172-40.863 32.095-61.282 71.167-61.282 117.261 0 43.536 16.346 77.918 49.037 103.051 32.686 25.178 81.22 43.71 145.589 55.651 40.863 8.063 69.038 17.167 84.531 27.313 15.513 10.175 23.244 21.738 23.244 34.56 0 15.817-5.96 28.038-17.877 36.524-11.922 8.546-29.448 12.89-52.606 12.89-27.916 0-49.473-5.536-64.613-16.481-15.164-10.937-23.072-28.852-23.751-53.682h-156.307l-1.007 2.882c-2.036 44.54 18.798 84.865 62.575 120.964 43.754 36.139 103.262 54.174 178.523 54.174 72.545 0 130.847-15.237 174.951-45.732 44.13-30.473 66.169-69.221 66.169-116.341 0-45.762-16.275-81.152-48.79-106.134zM2693.215 659.591h-3.065l-90.908-303.301h-108.828l-89.898 305.76h-3.068l-60.78-305.76h-159.371l130.254 523.445h145.616l90.378-277.675h3.068l89.921 277.675h146.096l129.751-523.445h-159.371l-59.796 303.301zM3205.522 346.56c-82.078-0.318-145.2 24.775-189.283 75.251-44.149 50.461-66.191 115.533-66.191 195.185v18.404c0 72.872 24.278 133.523 72.764 181.911 48.531 48.403 113.517 72.578 194.926 72.578 43.918 0 85.047-5.559 123.355-16.691 38.308-11.111 69.564-25.050 93.735-41.825l-40.872-99.671c-29.973 11.964-54.753 20.322-74.341 25.17-19.587 4.872-45.745 7.287-78.411 7.287-32.378 0-58.229-8.63-77.642-25.88-19.43-17.31-30.98-39.298-34.75-66.059l1.051-2.927h315.671v-85.678c0-72.872-21.319-130.597-63.857-173.191-42.507-42.571-101.268-63.86-176.153-63.86zM3277.041 567.205h-148.667l-1.536-2.398c2.74-28.082 10.323-50.5 22.767-67.275 12.404-16.737 31.069-25.133 55.949-25.133 24.492 0 42.507 7.091 54.144 21.286 11.572 14.188 17.374 34.516 17.374 60.946l-0.032 12.572zM3784.919 346.56c-82.098-0.318-145.153 24.775-189.297 75.251-44.078 50.461-66.166 115.533-66.166 195.185v18.404c0 72.872 24.268 133.523 72.802 181.911 48.566 48.403 113.482 72.578 194.874 72.578 43.95 0 85.080-5.559 123.419-16.691 38.308-11.111 69.532-25.050 93.702-41.825l-40.841-99.671c-29.973 11.964-54.721 20.322-74.341 25.17-19.62 4.872-45.745 7.287-78.443 7.287-32.346 0-58.215-8.63-77.611-25.88-19.459-17.31-31-39.298-34.781-66.059l1.026-2.927h315.698v-85.678c0-72.872-21.286-130.597-63.857-173.191-42.571-42.571-101.268-63.86-176.185-63.86zM3856.406 567.205h-148.617l-1.539-2.398c2.757-28.082 10.29-50.5 22.729-67.275 12.374-16.737 31.064-25.133 55.94-25.133 24.524 0 42.571 7.091 54.177 21.286 11.636 14.188 17.374 34.516 17.374 60.946v12.589h-0.064v-0.017zM4379.674 743.942c-21.414 0-37.987-5.296-49.56-15.938-11.54-10.644-17.374-25.842-17.374-45.506v-212.127h89.824v-113.247h-89.824v-232.948h-173.14v232.948h-79.726v113.247h79.726v227.666c0 60.312 19.042 106.603 57.19 138.87 38.115 32.291 95.498 39.284 137.396 39.284 13.753 0 109.86-1.047 109.86-1.047v-131.366c0 0-53.792 0.166-64.37 0.166z"></path>
</symbol>
</defs>
</svg>