<svg aria-hidden="true" style="position: absolute; width: 0; height: 0; overflow: hidden;" version="1.1" xmlns="http://www.w3.org/2000/svg" xmlns:xlink="http://www.w3.org/1999/xlink">
<defs>
<symbol id="icon-standart" viewBox="0 0 34 32">
<path d="M8.8 17.6c3.976 0 7.2 3.224 7.2 7.2s-3.224 7.2-7.2 7.2c-3.976 0-7.2-3.224-7.2-7.2s3.224-7.2 7.2-7.2z"></path>
<path d="M7.2 0c3.976 0 7.2 3.224 7.2 7.2s-3.224 7.2-7.2 7.2c-3.976 0-7.2-3.224-7.2-7.2s3.224-7.2 7.2-7.2z"></path>
<path d="M26.4 0c3.976 0 7.2 3.224 7.2 7.2v17.6c0 3.976-3.224 7.2-7.2 7.2s-7.2-3.224-7.2-7.2v-17.6c0-3.976 3.224-7.2 7.2-7.2z"></path>
</symbol>
<symbol id="icon-platinum" viewBox="0 0 38 32">
<path d="M0 24.8c0-3.976 3.224-7.2 7.2-7.2h9.6c3.976 0 7.2 3.224 7.2 7.2s-3.224 7.2-7.2 7.2h-9.6c-3.976 0-7.2-3.224-7.2-7.2z"></path>
<path d="M0 7.2c0-3.976 3.224-7.2 7.2-7.2s7.2 3.224 7.2 7.2c0 3.976-3.224 7.2-7.2 7.2s-7.2-3.224-7.2-7.2z"></path>
<path d="M17.6 7.2c0-3.976 3.224-7.2 7.2-7.2h6.4c3.976 0 7.2 3.224 7.2 7.2s-3.224 7.2-7.2 7.2h-6.4c-3.976 0-7.2-3.224-7.2-7.2z"></path>
<path d="M25.6 25.6v-1.6c0-3.535 2.865-6.4 6.4-6.4s6.4 2.865 6.4 6.4v1.6c0 3.535-2.865 6.4-6.4 6.4s-6.4-2.865-6.4-6.4z"></path>
</symbol>
<symbol id="icon-regular" viewBox="0 0 27 32">
<path d="M6.003 14.667c3.312 0 5.998 2.685 5.998 5.998v5.331c0 3.312-2.685 5.998-5.998 5.998s-5.998-2.685-5.998-5.998v-5.331c0-3.312 2.685-5.998 5.998-5.998z"></path>
<path d="M6.003 0.006h14.661c3.312 0 5.998 2.685 5.998 5.998s-2.685 5.998-5.998 5.998h-14.661c-3.312 0-5.998-2.685-5.998-5.998s2.685-5.998 5.998-5.998z"></path>
<path d="M20.664 14.667c3.312 0 5.998 2.685 5.998 5.998v5.331c0 3.312-2.685 5.998-5.998 5.998s-5.998-2.685-5.998-5.998v-5.331c0-3.312 2.685-5.998 5.998-5.998z"></path>
</symbol>
<symbol id="icon-minus" viewBox="0 0 32 32">
<path d="M4 13h24c1.657 0 3 1.343 3 3s-1.343 3-3 3h-24c-1.657 0-3-1.343-3-3s1.343-3 3-3z"></path>
</symbol>
<symbol id="icon-plus" viewBox="0 0 32 32">
<path d="M3.2 12.8h25.6c1.767 0 3.2 1.433 3.2 3.2s-1.433 3.2-3.2 3.2h-25.6c-1.767 0-3.2-1.433-3.2-3.2s1.433-3.2 3.2-3.2z"></path>
<path d="M12.8 28.8v-25.6c0-1.767 1.433-3.2 3.2-3.2s3.2 1.433 3.2 3.2v25.6c0 1.767-1.433 3.2-3.2 3.2s-3.2-1.433-3.2-3.2z"></path>
</symbol>
<symbol id="icon-checked" viewBox="0 0 32 32">
<path stroke-linejoin="round" stroke-linecap="round" stroke-miterlimit="4" stroke-width="7.1111" d="M3.929 16l8.048 7.682 16.095-15.364"></path>
</symbol>
</defs>
</svg>
